<svg version="1.1" id="Layer_1" xmlns="http://www.w3.org/2000/svg" xmlns:xlink="http://www.w3.org/1999/xlink" x="0px" y="0px"
	 width="100%" viewBox="0 0 2171 2171" enable-background="new 0 0 2171 2171" xml:space="preserve">
<path fill="#6188E8" opacity="1.000000" stroke="none" 
	d="
M1044.000000,2174.000000 
	C696.039856,2174.000000 349.079681,2174.000000 2.059753,2174.000000 
	C2.059753,1450.122925 2.059753,726.245911 2.059753,2.184424 
	C725.793884,2.184424 1449.587891,2.184424 2173.690918,2.184424 
	C2173.690918,725.999878 2173.690918,1449.999878 2173.690918,2174.000000 
	C1797.578491,2174.000000 1421.289185,2174.000000 1044.000000,2174.000000 
M205.087341,964.403625 
	C201.891403,967.956177 198.830399,971.641968 195.477463,975.039490 
	C174.939301,995.851196 154.469284,1016.734131 133.624283,1037.235229 
	C130.028214,1040.771851 128.950912,1042.408203 132.952301,1046.327637 
	C152.055069,1065.038696 170.869720,1084.043823 189.799103,1102.932007 
	C223.033539,1136.094116 256.303864,1169.220337 289.508972,1202.411865 
	C322.939270,1235.828613 356.281586,1269.333496 389.711853,1302.750244 
	C422.916870,1335.941650 456.255890,1368.999390 489.397858,1402.253540 
	C511.951233,1424.883179 534.136719,1447.879883 556.721130,1470.478149 
	C584.573486,1498.347412 612.681885,1525.960449 640.655823,1553.708130 
	C664.922546,1577.778442 689.215698,1601.822876 713.390076,1625.985840 
	C747.133728,1659.713745 780.765442,1693.553467 814.471619,1727.318848 
	C825.343384,1738.209961 836.384705,1748.932983 847.163574,1759.914307 
	C850.456116,1763.269043 852.735840,1763.343994 856.047241,1759.841797 
	C863.986267,1751.445679 872.253906,1743.357422 880.465637,1735.222290 
	C900.342712,1715.530884 920.331482,1695.951782 940.144653,1676.196533 
	C954.792664,1661.591309 969.146912,1646.691650 983.791077,1632.082520 
	C1003.792480,1612.129150 1024.007812,1592.390381 1044.016479,1572.444214 
	C1067.470947,1549.062500 1090.797363,1525.552246 1114.187744,1502.105835 
	C1147.661377,1468.552124 1181.102295,1434.965820 1214.633545,1401.469971 
	C1239.638916,1376.491089 1264.795532,1351.663452 1289.829224,1326.712891 
	C1314.688843,1301.935547 1339.502075,1277.111572 1364.293701,1252.266235 
	C1394.828857,1221.665161 1425.271240,1190.971191 1455.845215,1160.408813 
	C1487.427246,1128.838867 1519.191406,1097.451172 1550.745850,1065.853760 
	C1604.090332,1012.436401 1657.258667,958.842834 1710.638428,905.460571 
	C1764.602295,851.494019 1818.757446,797.718750 1872.780884,743.811707 
	C1903.352417,713.305908 1933.904053,682.779541 1964.323853,652.122559 
	C1991.877319,624.354187 2019.239258,596.395752 2047.068115,568.132751 
	C1994.404297,515.533447 1941.131836,462.326233 1887.854614,409.114288 
	C1885.784180,410.752167 1884.115845,411.820831 1882.749512,413.190643 
	C1864.635742,431.352020 1846.635498,449.626953 1828.463379,467.729584 
	C1808.458252,487.658264 1788.177002,507.310852 1768.250732,527.317627 
	C1747.201050,548.452698 1726.745483,570.187134 1705.446045,591.063782 
	C1683.951782,612.131470 1662.120972,632.856873 1640.887817,654.195312 
	C1620.368164,674.816711 1599.792114,695.382263 1579.223633,715.955261 
	C1556.078369,739.105835 1532.913818,762.237244 1509.757812,785.377258 
	C1484.786255,810.331787 1459.804443,835.276184 1434.845703,860.243530 
	C1397.429810,897.672424 1360.039551,935.126892 1322.619385,972.551575 
	C1306.210327,988.962646 1289.738159,1005.310547 1273.322876,1021.715454 
	C1239.984863,1055.032227 1206.670044,1088.371948 1173.338257,1121.694946 
	C1149.937866,1145.089355 1126.531494,1168.478027 1103.116943,1191.858276 
	C1063.612671,1231.304932 1024.068481,1270.711548 984.599548,1310.193481 
	C944.066223,1350.740234 903.500916,1391.256348 863.207886,1432.040894 
	C856.383179,1438.948975 848.561646,1440.767212 839.806030,1431.723511 
	C813.598328,1404.653809 786.619751,1378.331665 760.010132,1351.649902 
	C730.370300,1321.929932 700.894958,1292.045410 671.182068,1262.398804 
	C641.894165,1233.176147 612.292542,1204.267822 583.024292,1175.025757 
	C554.010132,1146.037476 525.329590,1116.715454 496.334320,1087.708130 
	C473.693604,1065.057983 450.748993,1042.711792 428.024200,1020.145142 
	C406.853058,999.121521 385.757812,978.021057 364.695404,956.888367 
	C343.277832,935.399475 321.950531,913.820618 300.559631,892.305115 
	C297.143829,888.869385 293.601990,885.559021 289.921021,881.999939 
	C287.781372,883.611511 286.088928,884.606750 284.739655,885.947388 
	C274.953186,895.669983 265.290314,905.517212 255.484589,915.220215 
	C239.148849,931.384827 222.735748,947.471252 205.087341,964.403625 
z"/>
<path fill="#000001" opacity="1.000000" stroke="none" 
	d="
M205.721283,963.997070 
	C222.735748,947.471252 239.148849,931.384827 255.484589,915.220215 
	C265.290314,905.517212 274.953186,895.669983 284.739655,885.947388 
	C286.088928,884.606750 287.781372,883.611511 289.921021,881.999939 
	C293.601990,885.559021 297.143829,888.869385 300.559631,892.305115 
	C321.950531,913.820618 343.277832,935.399475 364.695404,956.888367 
	C385.757812,978.021057 406.853058,999.121521 428.024200,1020.145142 
	C450.748993,1042.711792 473.693604,1065.057983 496.334320,1087.708130 
	C525.329590,1116.715454 554.010132,1146.037476 583.024292,1175.025757 
	C612.292542,1204.267822 641.894165,1233.176147 671.182068,1262.398804 
	C700.894958,1292.045410 730.370300,1321.929932 760.010132,1351.649902 
	C786.619751,1378.331665 813.598328,1404.653809 839.806030,1431.723511 
	C848.561646,1440.767212 856.383179,1438.948975 863.207886,1432.040894 
	C903.500916,1391.256348 944.066223,1350.740234 984.599548,1310.193481 
	C1024.068481,1270.711548 1063.612671,1231.304932 1103.116943,1191.858276 
	C1126.531494,1168.478027 1149.937866,1145.089355 1173.338257,1121.694946 
	C1206.670044,1088.371948 1239.984863,1055.032227 1273.322876,1021.715454 
	C1289.738159,1005.310547 1306.210327,988.962646 1322.619385,972.551575 
	C1360.039551,935.126892 1397.429810,897.672424 1434.845703,860.243530 
	C1459.804443,835.276184 1484.786255,810.331787 1509.757812,785.377258 
	C1532.913818,762.237244 1556.078369,739.105835 1579.223633,715.955261 
	C1599.792114,695.382263 1620.368164,674.816711 1640.887817,654.195312 
	C1662.120972,632.856873 1683.951782,612.131470 1705.446045,591.063782 
	C1726.745483,570.187134 1747.201050,548.452698 1768.250732,527.317627 
	C1788.177002,507.310852 1808.458252,487.658264 1828.463379,467.729584 
	C1846.635498,449.626953 1864.635742,431.352020 1882.749512,413.190643 
	C1884.115845,411.820831 1885.784180,410.752167 1887.854614,409.114288 
	C1941.131836,462.326233 1994.404297,515.533447 2047.068115,568.132751 
	C2019.239258,596.395752 1991.877319,624.354187 1964.323853,652.122559 
	C1933.904053,682.779541 1903.352417,713.305908 1872.780884,743.811707 
	C1818.757446,797.718750 1764.602295,851.494019 1710.638428,905.460571 
	C1657.258667,958.842834 1604.090332,1012.436401 1550.745850,1065.853760 
	C1519.191406,1097.451172 1487.427246,1128.838867 1455.845215,1160.408813 
	C1425.271240,1190.971191 1394.828857,1221.665161 1364.293701,1252.266235 
	C1339.502075,1277.111572 1314.688843,1301.935547 1289.829224,1326.712891 
	C1264.795532,1351.663452 1239.638916,1376.491089 1214.633545,1401.469971 
	C1181.102295,1434.965820 1147.661377,1468.552124 1114.187744,1502.105835 
	C1090.797363,1525.552246 1067.470947,1549.062500 1044.016479,1572.444214 
	C1024.007812,1592.390381 1003.792480,1612.129150 983.791077,1632.082520 
	C969.146912,1646.691650 954.792664,1661.591309 940.144653,1676.196533 
	C920.331482,1695.951782 900.342712,1715.530884 880.465637,1735.222290 
	C872.253906,1743.357422 863.986267,1751.445679 856.047241,1759.841797 
	C852.735840,1763.343994 850.456116,1763.269043 847.163574,1759.914307 
	C836.384705,1748.932983 825.343384,1738.209961 814.471619,1727.318848 
	C780.765442,1693.553467 747.133728,1659.713745 713.390076,1625.985840 
	C689.215698,1601.822876 664.922546,1577.778442 640.655823,1553.708130 
	C612.681885,1525.960449 584.573486,1498.347412 556.721130,1470.478149 
	C534.136719,1447.879883 511.951233,1424.883179 489.397858,1402.253540 
	C456.255890,1368.999390 422.916870,1335.941650 389.711853,1302.750244 
	C356.281586,1269.333496 322.939270,1235.828613 289.508972,1202.411865 
	C256.303864,1169.220337 223.033539,1136.094116 189.799103,1102.932007 
	C170.869720,1084.043823 152.055069,1065.038696 132.952301,1046.327637 
	C128.950912,1042.408203 130.028214,1040.771851 133.624283,1037.235229 
	C154.469284,1016.734131 174.939301,995.851196 195.477463,975.039490 
	C198.830399,971.641968 201.891403,967.956177 205.721283,963.997070 
z"/>
</svg>